<svg width="71" height="40" viewBox="0 0 71 40" fill="none" xmlns="http://www.w3.org/2000/svg">
<g clip-path="url(#clip0_1_2)">
<g clip-path="url(#clip1_1_2)">
<path d="M62.5551 40L62.5437 18.3854L51.5488 28.2584L46.839 24.0303L41.7406 19.5038L41.692 27.0965L32.0636 10.3942L32.0717 0.006455L36.503 4.00855L51.4565 17.7286L61.6079 8.47541L71 0V39.9935L62.5551 40Z" fill="#FF014F"/>
<path d="M14.1909 28.9281L26.1929 28.941L30.0106 35.73L10.3036 35.7349L7.87504 39.9919L0 39.9903L7.1238 27.3288L21.0249 2.39158L22.2764 0.0516396L27.3279 8.98213L42.4627 35.6041L44.9431 39.9887L36.626 39.9984L34.0647 35.5025L29.8066 27.9647L22.2457 14.7158L14.1909 28.9281Z" fill="#FF014F"/>
</g>
</g>
<defs>
<clipPath id="clip0_1_2">
<rect width="71" height="40" fill="white"/>
</clipPath>
<clipPath id="clip1_1_2">
<rect width="71" height="40" fill="white"/>
</clipPath>
</defs>
</svg>
